<svg xmlns="http://www.w3.org/2000/svg" width="450" height="56" viewBox="0 0 450 56">
  <metadata><?xpacket begin="﻿" id="W5M0MpCehiHzreSzNTczkc9d"?>
<x:xmpmeta xmlns:x="adobe:ns:meta/" x:xmptk="Adobe XMP Core 5.6-c142 79.160924, 2017/07/13-01:06:39        ">
   <rdf:RDF xmlns:rdf="http://www.w3.org/1999/02/22-rdf-syntax-ns#">
      <rdf:Description rdf:about=""/>
   </rdf:RDF>
</x:xmpmeta>
                                                                                                    
                                                                                                    
                                                                                                    
                                                                                                    
                                                                                                    
                                                                                                    
                                                                                                    
                                                                                                    
                                                                                                    
                                                                                                    
                                                                                                    
                                                                                                    
                                                                                                    
                                                                                                    
                                                                                                    
                                                                                                    
                                                                                                    
                                                                                                    
                                                                                                    
                                                                                                    
                           
<?xpacket end="w"?></metadata>
<defs>
    <style>
      .cls-1 {
        fill: #fff;
      }

      .cls-1, .cls-2 {
        fill-rule: evenodd;
      }

      .cls-2 {
        fill: #7fe89d;
      }
    </style>
  </defs>
  <path id="company" class="cls-1" d="M133.453,40.175a18.84,18.84,0,0,0,8.413-1.842,13.977,13.977,0,0,0,5.91-5.388l-3.685-2.5a11.27,11.27,0,0,1-4.589,4.032,13.912,13.912,0,0,1-6.049,1.321,14.32,14.32,0,0,1-7.126-1.773,12.509,12.509,0,0,1-4.937-5.005,15.29,15.29,0,0,1-1.773-7.473,15.345,15.345,0,0,1,1.773-7.438,12.455,12.455,0,0,1,4.937-5.04,14.32,14.32,0,0,1,7.126-1.773A13.618,13.618,0,0,1,139.5,8.649a11.535,11.535,0,0,1,4.589,4.067l3.685-2.5A14.035,14.035,0,0,0,141.9,4.826a18.8,18.8,0,0,0-8.448-1.842,19.72,19.72,0,0,0-9.7,2.364,17.186,17.186,0,0,0-6.709,6.6,18.921,18.921,0,0,0-2.434,9.593,19.107,19.107,0,0,0,2.434,9.628,17.107,17.107,0,0,0,6.709,6.639,19.708,19.708,0,0,0,9.7,2.364h0Zm40.049,0a19.012,19.012,0,0,0,9.525-2.4,17.245,17.245,0,0,0,6.64-6.639,19.139,19.139,0,0,0,2.4-9.593,19.144,19.144,0,0,0-2.4-9.593,17.011,17.011,0,0,0-6.64-6.6,20.376,20.376,0,0,0-19.051,0,17.243,17.243,0,0,0-6.674,6.6,18.921,18.921,0,0,0-2.434,9.593,18.915,18.915,0,0,0,2.434,9.593,17.482,17.482,0,0,0,6.674,6.639,19.008,19.008,0,0,0,9.526,2.4h0Zm0-4.38a13.8,13.8,0,0,1-6.988-1.773,12.584,12.584,0,0,1-4.867-5.04,15.342,15.342,0,0,1-1.773-7.438,15.345,15.345,0,0,1,1.773-7.438,12.591,12.591,0,0,1,4.867-5.04,14.658,14.658,0,0,1,13.975,0,12.367,12.367,0,0,1,4.832,5.04,15.6,15.6,0,0,1,1.738,7.438,15.6,15.6,0,0,1-1.738,7.438,12.36,12.36,0,0,1-4.832,5.04A13.8,13.8,0,0,1,173.5,35.8h0ZM249.5,2.983a17.9,17.9,0,0,0-8.656,2.051,14.247,14.247,0,0,0-5.805,5.666,11.977,11.977,0,0,0-5.041-5.77,15.661,15.661,0,0,0-7.961-1.946,17.086,17.086,0,0,0-8,1.807,13.187,13.187,0,0,0-5.423,5.144V3.262h-4.728V39.828h4.937V20.641q0-6.186,3.3-9.7a11.68,11.68,0,0,1,8.935-3.511q5.075,0,7.821,2.989t2.747,8.69V39.828h4.936V20.641q0-6.186,3.268-9.7T248.8,7.433q5.007,0,7.753,2.989t2.746,8.69V39.828h4.936v-21.2q0-7.716-3.928-11.679T249.5,2.983h0Zm48.739,0A17.241,17.241,0,0,0,290,4.93a15.207,15.207,0,0,0-5.875,5.561V3.262h-4.728V53.314h4.936V32.945a15.208,15.208,0,0,0,5.875,5.388,17.29,17.29,0,0,0,8.031,1.842,18.721,18.721,0,0,0,9.351-2.329,16.715,16.715,0,0,0,6.5-6.569,19.657,19.657,0,0,0,2.364-9.732,19.517,19.517,0,0,0-2.364-9.663,16.663,16.663,0,0,0-6.535-6.569,18.794,18.794,0,0,0-9.317-2.329h0ZM297.886,35.8a13.8,13.8,0,0,1-6.987-1.773,12.584,12.584,0,0,1-4.867-5.04,15.342,15.342,0,0,1-1.773-7.438,15.143,15.143,0,0,1,1.773-7.4A12.9,12.9,0,0,1,290.9,9.1a14.343,14.343,0,0,1,13.94,0,12.824,12.824,0,0,1,4.9,5.04,15.143,15.143,0,0,1,1.773,7.4,15.342,15.342,0,0,1-1.773,7.438,12.518,12.518,0,0,1-4.9,5.04,13.858,13.858,0,0,1-6.953,1.773h0ZM340.855,2.983A26,26,0,0,0,332.65,4.27a19.739,19.739,0,0,0-6.674,3.65L328.2,11.6a16.82,16.82,0,0,1,5.492-3.163,19.621,19.621,0,0,1,6.675-1.147q5.075,0,7.718,2.468t2.642,7.2v2.225H339.116q-7.37,0-10.742,2.85A9.351,9.351,0,0,0,325,29.539a9.427,9.427,0,0,0,3.616,7.716q3.613,2.92,9.734,2.92a17.148,17.148,0,0,0,7.682-1.6,11.307,11.307,0,0,0,4.9-4.449v5.7h4.728V17.165q0-7.021-3.824-10.6t-10.985-3.58h0Zm-1.739,33.3A11.074,11.074,0,0,1,332.3,34.44a5.976,5.976,0,0,1-2.434-5.04q0-6.534,9.386-6.535h11.473v5.979a11.422,11.422,0,0,1-4.45,5.527,13.007,13.007,0,0,1-7.162,1.912h0Zm50.338-33.3a17.923,17.923,0,0,0-8.308,1.842,13.728,13.728,0,0,0-5.6,5.179V3.262h-4.728V39.828h4.936V20.641q0-6.186,3.442-9.7t9.351-3.511q5.284,0,8.135,2.989t2.851,8.69V39.828h4.936v-21.2q0-7.646-4.067-11.644t-10.951-4h0ZM444.8,3.262L431.031,34.336,417.265,3.262H412.12l16.339,36.5-1.6,3.545a12.627,12.627,0,0,1-3.3,4.727,6.72,6.72,0,0,1-4.276,1.39,9.1,9.1,0,0,1-6.674-2.781l-2.3,3.684a10.705,10.705,0,0,0,3.963,2.5,14.341,14.341,0,0,0,4.937.834,11.5,11.5,0,0,0,7.022-2.155q2.921-2.156,5.145-7.3L449.665,3.262H444.8Z"/>
  <path id="my" class="cls-2" d="M54.4,2.983a20.086,20.086,0,0,0-9.018,2.051A18.418,18.418,0,0,0,38.581,10.7a9.362,9.362,0,0,0-4.023-5.77,13.839,13.839,0,0,0-7.618-1.946,19.093,19.093,0,0,0-8.315,1.807A17.034,17.034,0,0,0,12.3,9.935l1.177-6.674H8.745L2.3,39.828H7.233l3.384-19.187a16.345,16.345,0,0,1,5.013-9.7,13.816,13.816,0,0,1,9.554-3.511q5.074,0,7.294,2.989t1.215,8.69L30.038,39.828h4.936l3.384-19.187a16.435,16.435,0,0,1,4.978-9.7,13.782,13.782,0,0,1,9.588-3.511q5.006,0,7.224,2.989t1.215,8.69L57.71,39.828h4.937l3.739-21.2q1.361-7.716-1.869-11.679T54.4,2.983h0Zm55.018,0.278L90.176,34.336,81.889,3.262H76.744l9.9,36.5L84.423,43.3a16.281,16.281,0,0,1-4.137,4.727,7.785,7.785,0,0,1-4.52,1.39,7.6,7.6,0,0,1-6.185-2.781l-2.944,3.684a8.42,8.42,0,0,0,3.521,2.5A13.932,13.932,0,0,0,82.35,51.507a22.521,22.521,0,0,0,6.433-7.3L114.289,3.262h-4.867Z"/>
</svg>
